<mxfile host="app.diagrams.net" modified="2023-09-29T23:37:27.282Z" agent="Mozilla/5.0 (Windows NT 10.0; Win64; x64) AppleWebKit/537.36 (KHTML, like Gecko) Chrome/117.0.0.0 Safari/537.36" etag="JI8BqY-dL5h6JvE73_Ed" version="22.0.0" type="github">
  <diagram name="Login" id="Pct-kdnEl-3eTzmWrIL7">
    <mxGraphModel dx="1500" dy="774" grid="1" gridSize="10" guides="1" tooltips="1" connect="1" arrows="1" fold="1" page="1" pageScale="1" pageWidth="827" pageHeight="1169" math="0" shadow="0">
      <root>
        <mxCell id="0" />
        <mxCell id="1" parent="0" />
        <mxCell id="v4szhEZalX3MSaCU2B9a-4" style="edgeStyle=orthogonalEdgeStyle;rounded=0;orthogonalLoop=1;jettySize=auto;html=1;exitX=0.5;exitY=1;exitDx=0;exitDy=0;exitPerimeter=0;entryX=0.5;entryY=0;entryDx=0;entryDy=0;" edge="1" parent="1" source="v4szhEZalX3MSaCU2B9a-1" target="v4szhEZalX3MSaCU2B9a-2">
          <mxGeometry relative="1" as="geometry" />
        </mxCell>
        <mxCell id="v4szhEZalX3MSaCU2B9a-1" value="Start" style="strokeWidth=2;html=1;shape=mxgraph.flowchart.start_2;whiteSpace=wrap;" vertex="1" parent="1">
          <mxGeometry x="370" y="80" width="70" height="70" as="geometry" />
        </mxCell>
        <mxCell id="v4szhEZalX3MSaCU2B9a-5" value="" style="group" vertex="1" connectable="0" parent="1">
          <mxGeometry x="340" y="180" width="130" height="60" as="geometry" />
        </mxCell>
        <mxCell id="v4szhEZalX3MSaCU2B9a-2" value="" style="verticalLabelPosition=bottom;verticalAlign=top;html=1;shape=hexagon;perimeter=hexagonPerimeter2;arcSize=6;size=0.27;" vertex="1" parent="v4szhEZalX3MSaCU2B9a-5">
          <mxGeometry x="15" width="100" height="60" as="geometry" />
        </mxCell>
        <mxCell id="v4szhEZalX3MSaCU2B9a-3" value="&lt;font style=&quot;font-size: 11px;&quot;&gt;Email &amp;amp; &lt;br&gt;Password&lt;/font&gt;" style="text;strokeColor=none;align=center;fillColor=none;html=1;verticalAlign=middle;whiteSpace=wrap;rounded=0;" vertex="1" parent="v4szhEZalX3MSaCU2B9a-5">
          <mxGeometry y="15" width="130" height="30" as="geometry" />
        </mxCell>
        <mxCell id="v4szhEZalX3MSaCU2B9a-6" value="&lt;font style=&quot;font-size: 11px;&quot;&gt;Input &lt;br&gt;Email &amp;amp; Password&lt;/font&gt;" style="html=1;strokeWidth=2;shape=manualInput;whiteSpace=wrap;rounded=1;size=26;arcSize=11;" vertex="1" parent="1">
          <mxGeometry x="355" y="270" width="100" height="60" as="geometry" />
        </mxCell>
        <mxCell id="v4szhEZalX3MSaCU2B9a-7" style="edgeStyle=orthogonalEdgeStyle;rounded=0;orthogonalLoop=1;jettySize=auto;html=1;exitX=0.5;exitY=1;exitDx=0;exitDy=0;entryX=0.504;entryY=0.264;entryDx=0;entryDy=0;entryPerimeter=0;" edge="1" parent="1" source="v4szhEZalX3MSaCU2B9a-2" target="v4szhEZalX3MSaCU2B9a-6">
          <mxGeometry relative="1" as="geometry" />
        </mxCell>
        <mxCell id="v4szhEZalX3MSaCU2B9a-13" style="edgeStyle=orthogonalEdgeStyle;rounded=0;orthogonalLoop=1;jettySize=auto;html=1;exitX=0.5;exitY=1;exitDx=0;exitDy=0;exitPerimeter=0;entryX=0.5;entryY=0;entryDx=0;entryDy=0;" edge="1" parent="1" source="v4szhEZalX3MSaCU2B9a-10" target="v4szhEZalX3MSaCU2B9a-12">
          <mxGeometry relative="1" as="geometry" />
        </mxCell>
        <mxCell id="v4szhEZalX3MSaCU2B9a-15" value="True" style="edgeLabel;html=1;align=center;verticalAlign=middle;resizable=0;points=[];" vertex="1" connectable="0" parent="v4szhEZalX3MSaCU2B9a-13">
          <mxGeometry x="-0.135" y="-1" relative="1" as="geometry">
            <mxPoint as="offset" />
          </mxGeometry>
        </mxCell>
        <mxCell id="v4szhEZalX3MSaCU2B9a-10" value="Verifikasi &lt;br&gt;Inputan" style="strokeWidth=2;html=1;shape=mxgraph.flowchart.decision;whiteSpace=wrap;" vertex="1" parent="1">
          <mxGeometry x="355" y="390" width="100" height="100" as="geometry" />
        </mxCell>
        <mxCell id="v4szhEZalX3MSaCU2B9a-11" style="edgeStyle=orthogonalEdgeStyle;rounded=0;orthogonalLoop=1;jettySize=auto;html=1;exitX=0;exitY=0.5;exitDx=0;exitDy=0;exitPerimeter=0;entryX=-0.004;entryY=0.641;entryDx=0;entryDy=0;entryPerimeter=0;" edge="1" parent="1" source="v4szhEZalX3MSaCU2B9a-10" target="v4szhEZalX3MSaCU2B9a-6">
          <mxGeometry relative="1" as="geometry">
            <Array as="points">
              <mxPoint x="300" y="440" />
              <mxPoint x="300" y="309" />
            </Array>
          </mxGeometry>
        </mxCell>
        <mxCell id="v4szhEZalX3MSaCU2B9a-14" value="False" style="edgeLabel;html=1;align=center;verticalAlign=middle;resizable=0;points=[];" vertex="1" connectable="0" parent="v4szhEZalX3MSaCU2B9a-11">
          <mxGeometry x="0.0434" y="1" relative="1" as="geometry">
            <mxPoint as="offset" />
          </mxGeometry>
        </mxCell>
        <mxCell id="v4szhEZalX3MSaCU2B9a-12" value="Menampilkan Dahsboard" style="rounded=1;whiteSpace=wrap;html=1;absoluteArcSize=1;arcSize=14;strokeWidth=2;" vertex="1" parent="1">
          <mxGeometry x="355" y="570" width="100" height="50" as="geometry" />
        </mxCell>
        <mxCell id="v4szhEZalX3MSaCU2B9a-17" style="edgeStyle=orthogonalEdgeStyle;rounded=0;orthogonalLoop=1;jettySize=auto;html=1;exitX=0.5;exitY=1;exitDx=0;exitDy=0;entryX=0.5;entryY=0;entryDx=0;entryDy=0;entryPerimeter=0;" edge="1" parent="1" source="v4szhEZalX3MSaCU2B9a-6" target="v4szhEZalX3MSaCU2B9a-10">
          <mxGeometry relative="1" as="geometry" />
        </mxCell>
      </root>
    </mxGraphModel>
  </diagram>
</mxfile>
